<svg version="1.1" id="Layer_1" xmlns="http://www.w3.org/2000/svg" xmlns:xlink="http://www.w3.org/1999/xlink" x="0px" y="0px"
	 width="100%" viewBox="0 0 540 318" enable-background="new 0 0 540 318" xml:space="preserve">
<path fill="#000000" opacity="1.000000" stroke="none" 
	d="
M346.000000,319.000000 
	C230.666702,319.000000 115.833405,319.000000 1.000077,319.000000 
	C1.000051,213.000061 1.000051,107.000130 1.000026,1.000148 
	C180.999878,1.000099 360.999756,1.000099 540.999756,1.000049 
	C540.999817,106.999847 540.999817,212.999695 540.999878,318.999756 
	C476.166656,319.000000 411.333344,319.000000 346.000000,319.000000 
M261.118774,208.296707 
	C261.118774,208.296707 260.970673,208.695587 260.294983,209.549530 
	C260.515137,210.194000 260.735291,210.838470 260.994598,211.496857 
	C260.994598,211.496857 260.960480,211.486694 260.208771,211.833954 
	C260.106995,212.927856 260.005219,214.021759 259.779816,215.928833 
	C260.344299,216.763245 260.908783,217.597656 261.473267,218.432068 
	C262.020203,217.341263 262.567139,216.250473 263.286316,214.587112 
	C263.304443,214.388657 263.322601,214.190186 263.669067,213.414368 
	C263.259521,211.929504 262.850006,210.444656 261.935913,208.359802 
	C261.681946,208.298264 261.427979,208.236740 261.118774,208.296707 
M338.177063,213.451309 
	C338.457581,213.492096 338.738068,213.532883 339.018585,213.573654 
	C338.766876,213.277786 338.515198,212.981903 338.026031,211.970856 
	C335.691345,211.422836 333.356628,210.874832 331.021973,210.326813 
	C330.729279,211.656921 329.763977,213.407303 330.279510,214.232422 
	C331.470032,216.137894 336.326996,215.279602 338.177063,213.451309 
M266.631042,179.360092 
	C268.368164,179.605423 270.105316,179.850754 272.041473,180.124207 
	C272.041473,176.558578 272.175079,173.431305 272.007233,170.320297 
	C271.803192,166.537491 271.345154,162.768372 270.430023,158.530045 
	C266.833740,157.375427 267.048279,159.948044 267.027924,162.108627 
	C266.975006,167.725174 267.009125,173.342514 266.631042,179.360092 
M265.551208,140.560883 
	C264.037659,137.378647 262.524078,134.196411 260.983093,130.195892 
	C260.227844,127.357697 259.785706,124.384262 258.633942,121.717323 
	C257.346863,118.737129 252.967850,117.848450 251.755661,120.282150 
	C248.430298,126.958412 245.630936,133.896652 242.623398,140.731216 
	C243.221420,141.219894 243.819458,141.708588 244.417480,142.197281 
	C246.011429,140.877594 247.585846,139.533279 249.207535,138.248627 
	C250.018448,137.606247 251.093445,136.422974 251.743530,136.600861 
	C254.809998,137.439880 259.205872,134.314850 260.937897,139.677002 
	C261.194153,140.470352 263.592499,140.571808 265.551208,140.560883 
M288.513458,136.798752 
	C289.236725,133.675156 290.934418,130.402908 290.485168,127.458206 
	C289.478851,120.862427 278.718140,115.784027 272.507629,118.525513 
	C271.491302,118.974152 270.233398,120.342590 270.203003,121.320595 
	C269.999054,127.883133 270.096924,134.455063 270.096924,140.983582 
	C272.951569,140.983582 275.125854,141.177063 277.252533,140.941238 
	C281.079590,140.516861 285.389679,141.373337 288.513458,136.798752 
M216.051590,176.982574 
	C216.933411,177.887024 217.815216,178.791489 218.697021,179.695953 
	C219.439850,178.731369 220.685211,177.833572 220.824112,176.788696 
	C221.143829,174.383698 220.925491,171.907181 220.925491,167.901993 
	C224.052567,172.052704 226.097672,175.207016 228.624268,177.911469 
	C229.682343,179.043991 231.773407,179.689774 233.372025,179.649597 
	C234.252396,179.627457 235.767365,177.757950 235.823486,176.661285 
	C236.085968,171.531311 236.087311,166.372772 235.818115,161.243530 
	C235.763657,160.205795 234.135040,159.250671 233.232178,158.257462 
	C232.497894,159.329407 231.309586,160.327820 231.121689,161.488235 
	C230.700638,164.088150 230.777252,166.768661 230.651215,169.416351 
	C226.778259,166.513260 224.324387,163.250885 221.595352,160.237717 
	C220.735794,159.288666 218.896057,158.298538 217.947464,158.622604 
	C217.016693,158.940598 216.177109,160.883850 216.118164,162.151993 
	C215.902588,166.788681 216.029434,171.441284 216.051590,176.982574 
M304.618042,180.385208 
	C309.157837,180.567917 312.021484,177.814774 312.685089,173.966888 
	C313.347778,170.123932 310.003571,168.403702 306.612366,167.269043 
	C304.991608,166.726761 303.577148,165.567780 302.069275,164.688126 
	C302.266022,164.192352 302.462799,163.696579 302.659546,163.200806 
	C304.327087,163.383606 306.036591,163.873199 307.648956,163.652649 
	C308.950439,163.474625 310.205536,162.534241 311.310394,161.704575 
	C311.527985,161.541183 311.041901,159.743484 310.751068,159.706146 
	C307.075500,159.234116 303.324219,158.485214 299.714691,158.892395 
	C298.627045,159.015106 297.603027,162.403168 297.099426,164.431854 
	C296.094360,168.480545 299.256042,169.700150 302.074890,171.198120 
	C303.647034,172.033554 304.957703,173.361053 306.386200,174.466812 
	C304.492584,174.600464 302.600311,174.773849 300.704346,174.839035 
	C300.247070,174.854767 299.675903,174.249969 299.332245,174.382996 
	C298.226135,174.811142 297.201874,175.450699 296.146027,176.008743 
	C296.683624,176.907822 297.021851,178.290619 297.798126,178.610550 
	C299.726562,179.405396 301.854828,179.715393 304.618042,180.385208 
M243.072906,171.583984 
	C242.085800,174.098907 241.098694,176.613846 239.636215,180.339935 
	C242.406998,179.659515 244.948288,179.600479 245.140640,178.898178 
	C246.585953,173.620682 250.535202,175.163208 254.026016,175.135895 
	C255.501038,175.124344 257.880219,175.079620 258.248474,174.297089 
	C258.925385,172.858551 258.796356,170.750580 258.315643,169.124924 
	C257.576782,166.626083 256.441864,164.190292 255.116806,161.938507 
	C254.282715,160.521057 252.658737,158.404083 251.631439,158.532928 
	C250.022598,158.734711 248.100189,160.274414 247.239639,161.778839 
	C245.614563,164.619873 244.650238,167.838867 243.072906,171.583984 
M193.840530,205.877655 
	C195.213348,206.437836 196.579956,207.441483 197.960373,207.460892 
	C200.425735,207.495529 204.017960,207.838730 205.143982,206.443192 
	C207.733368,203.234039 207.477402,199.255875 205.054047,195.437515 
	C203.340088,192.736954 201.965836,191.890289 199.403778,194.288467 
	C199.088776,194.583313 197.688431,193.802887 196.835648,193.421127 
	C195.142075,192.662979 193.479614,191.835388 191.789993,191.029678 
	C191.572128,195.638443 191.284836,199.495041 191.299667,203.350494 
	C191.302505,204.086792 192.497238,204.818497 193.840530,205.877655 
M333.803680,203.784653 
	C333.298798,202.369720 332.793915,200.954788 332.686646,200.654129 
	C333.103027,197.060318 333.421753,194.309387 333.740479,191.558441 
	C331.106720,192.241043 328.472931,192.923660 325.839172,193.606277 
	C324.259308,193.627914 321.703979,193.658585 321.526001,194.324631 
	C320.587280,197.836990 319.960419,201.504105 319.891785,205.130157 
	C319.873383,206.104980 322.427917,208.159760 323.384979,207.936188 
	C326.804413,207.137466 330.044861,205.572464 333.803680,203.784653 
M230.706268,134.964233 
	C230.755905,135.625656 230.646454,136.352234 230.885620,136.936035 
	C231.551727,138.562103 232.362503,140.128906 233.116135,141.719131 
	C234.057861,140.014450 235.202469,138.387772 235.894821,136.587204 
	C236.994278,133.727783 237.605591,130.675507 238.770859,127.848007 
	C239.870987,125.178566 241.419403,122.693878 242.858871,119.960320 
	C236.280731,116.638901 235.986252,123.310394 233.206543,125.588440 
	C227.217224,118.062431 227.217224,118.062431 223.517090,119.277878 
	C224.130524,120.794479 224.637253,122.336678 225.357849,123.771461 
	C227.122223,127.284492 228.985306,130.747940 230.706268,134.964233 
M234.176208,205.070465 
	C231.827576,206.128281 229.478958,207.186096 227.248138,208.190857 
	C228.246933,211.950241 229.105942,215.183517 229.694748,217.399750 
	C232.420074,217.000366 234.634796,216.789810 236.783661,216.293839 
	C237.458679,216.138031 238.469452,215.200134 238.453186,214.645874 
	C238.339752,210.784363 239.082901,206.320587 237.373199,203.271103 
	C236.074982,200.955566 231.626495,200.225540 228.435471,199.273605 
	C227.593719,199.022491 226.217621,200.562607 225.086884,201.280197 
	C225.251053,201.714371 225.415222,202.148529 225.579391,202.582703 
	C228.257553,202.582703 230.941803,202.493835 233.607529,202.675949 
	C234.020309,202.704147 234.348297,203.973663 234.176208,205.070465 
M300.899048,140.091217 
	C301.303467,134.208435 301.885590,128.327942 301.961182,122.440933 
	C301.976166,121.274445 300.046417,120.082993 299.013458,118.903046 
	C298.270966,120.149887 296.957397,121.365791 296.887878,122.649086 
	C296.628662,127.434044 296.530945,132.262100 296.936218,137.026031 
	C297.045959,138.316025 299.140442,139.437164 300.899048,140.091217 
M287.475342,175.997086 
	C284.315765,176.143188 282.936615,174.602615 283.004974,171.480164 
	C283.074005,168.327759 283.156677,165.156921 282.873077,162.026810 
	C282.786896,161.075546 281.505035,160.232605 280.770813,159.340057 
	C280.194550,160.222885 279.167877,161.082275 279.120544,161.992599 
	C278.922577,165.801361 278.826508,169.638275 279.081970,173.438751 
	C279.224304,175.556290 279.791748,179.223053 280.753510,179.426834 
	C284.369812,180.193146 288.525543,181.313873 292.410370,177.078552 
	C290.563843,176.598953 289.429230,176.304260 287.475342,175.997086 
M295.851776,214.958740 
	C294.152710,212.635437 299.042877,209.256378 294.495758,207.263992 
	C291.697418,206.037827 289.129578,204.285629 286.286926,202.672394 
	C286.286926,206.803116 286.286926,210.842804 286.286926,214.839066 
	C288.240784,215.720337 290.395111,216.349854 292.147552,217.560928 
	C294.921387,219.477905 295.567688,218.076859 295.851776,214.958740 
M181.560928,201.087906 
	C178.714767,198.702408 175.868622,196.316925 173.022461,193.931442 
	C172.569946,194.143204 172.117416,194.354965 171.664886,194.566727 
	C172.088730,197.380920 171.684326,200.802078 173.174179,202.835022 
	C174.604462,204.786621 177.967072,206.122971 180.537308,206.219574 
	C183.266174,206.322144 182.942657,203.716095 181.560928,201.087906 
M347.042725,205.727936 
	C352.541504,202.106995 353.388428,199.613708 350.526031,194.369186 
	C347.875519,196.891876 345.140961,199.182617 342.852509,201.855316 
	C342.129944,202.699234 342.600983,204.565170 342.525757,205.963364 
	C343.821991,205.943832 345.118195,205.924316 347.042725,205.727936 
M251.230377,233.666229 
	C241.768967,233.666229 232.307556,233.666229 222.846161,233.666229 
	C222.848816,234.015045 222.851486,234.363861 222.854141,234.712677 
	C242.215729,234.712677 261.577332,234.712677 280.938904,234.712677 
	C280.939209,234.457001 280.939484,234.201324 280.939758,233.945648 
	C271.325317,233.945648 261.710876,233.945648 251.230377,233.666229 
M292.454559,199.436829 
	C291.902161,200.537872 291.349792,201.638916 290.797394,202.739960 
	C293.245636,203.462433 295.699921,204.716827 298.139679,204.689194 
	C299.412354,204.674789 300.659515,202.402847 301.918182,201.150574 
	C301.697662,200.498215 301.477142,199.845856 301.256592,199.193497 
	C298.543091,199.193497 295.829559,199.193497 292.454559,199.436829 
M194.584534,211.057724 
	C191.043289,210.000565 187.586517,209.304733 185.155365,213.171646 
	C188.195099,217.122391 192.855988,216.442932 199.420319,211.099747 
	C197.996689,211.099747 196.688812,211.099747 194.584534,211.057724 
M308.409637,214.860916 
	C309.441193,213.121536 310.472778,211.382156 311.590729,209.497116 
	C308.442841,208.056717 305.986969,206.932968 303.423553,205.759995 
	C300.755707,211.194122 305.486633,212.397186 308.409637,214.860916 
M221.051071,209.168198 
	C220.212601,208.156433 219.275177,206.215134 218.552582,206.292068 
	C215.229660,206.645782 213.725769,210.214233 215.233749,215.348557 
	C217.411346,213.291107 219.186325,211.614059 221.051071,209.168198 
M315.987305,209.044708 
	C316.111755,208.862885 316.255371,208.689484 316.342560,208.491272 
	C316.357849,208.456543 316.137604,208.240738 316.023804,208.238708 
	C314.913635,208.218918 313.802948,208.226791 312.692413,208.226791 
	C312.691833,208.418564 312.691284,208.610352 312.690704,208.802124 
	C313.585968,208.858353 314.481262,208.914581 315.987305,209.044708 
M262.676544,206.519012 
	C262.300293,206.196152 261.924042,205.873306 261.547821,205.550446 
	C261.299042,205.860947 261.050293,206.171463 260.801544,206.481979 
	C261.233856,206.621124 261.666168,206.760284 262.676544,206.519012 
M205.409683,208.895432 
	C204.986008,209.084518 204.562332,209.273605 204.138672,209.462708 
	C204.522644,209.673584 204.999191,210.135010 205.268478,210.035522 
	C205.654251,209.892960 205.888672,209.340805 205.409683,208.895432 
z"/>
<path fill="#0B0C0F" opacity="1.000000" stroke="none" 
	d="
M288.289734,137.093826 
	C285.389679,141.373337 281.079590,140.516861 277.252533,140.941238 
	C275.125854,141.177063 272.951569,140.983582 270.096924,140.983582 
	C270.096924,134.455063 269.999054,127.883133 270.203003,121.320595 
	C270.233398,120.342590 271.491302,118.974152 272.507629,118.525513 
	C278.718140,115.784027 289.478851,120.862427 290.485168,127.458206 
	C290.934418,130.402908 289.236725,133.675156 288.289734,137.093826 
z"/>
<path fill="#0E0D13" opacity="1.000000" stroke="none" 
	d="
M216.039444,176.535233 
	C216.029434,171.441284 215.902588,166.788681 216.118164,162.151993 
	C216.177109,160.883850 217.016693,158.940598 217.947464,158.622604 
	C218.896057,158.298538 220.735794,159.288666 221.595352,160.237717 
	C224.324387,163.250885 226.778259,166.513260 230.651215,169.416351 
	C230.777252,166.768661 230.700638,164.088150 231.121689,161.488235 
	C231.309586,160.327820 232.497894,159.329407 233.232178,158.257462 
	C234.135040,159.250671 235.763657,160.205795 235.818115,161.243530 
	C236.087311,166.372772 236.085968,171.531311 235.823486,176.661285 
	C235.767365,177.757950 234.252396,179.627457 233.372025,179.649597 
	C231.773407,179.689774 229.682343,179.043991 228.624268,177.911469 
	C226.097672,175.207016 224.052567,172.052704 220.925491,167.901993 
	C220.925491,171.907181 221.143829,174.383698 220.824112,176.788696 
	C220.685211,177.833572 219.439850,178.731369 218.697021,179.695953 
	C217.815216,178.791489 216.933411,177.887024 216.039444,176.535233 
z"/>
<path fill="#131214" opacity="1.000000" stroke="none" 
	d="
M264.999786,140.993378 
	C263.592499,140.571808 261.194153,140.470352 260.937897,139.677002 
	C259.205872,134.314850 254.809998,137.439880 251.743530,136.600861 
	C251.093445,136.422974 250.018448,137.606247 249.207535,138.248627 
	C247.585846,139.533279 246.011429,140.877594 244.417480,142.197281 
	C243.819458,141.708588 243.221420,141.219894 242.623398,140.731216 
	C245.630936,133.896652 248.430298,126.958412 251.755661,120.282150 
	C252.967850,117.848450 257.346863,118.737129 258.633942,121.717323 
	C259.785706,124.384262 260.227844,127.357697 261.138519,130.934219 
	C262.529236,134.779495 263.764496,137.886429 264.999786,140.993378 
z"/>
<path fill="#151417" opacity="1.000000" stroke="none" 
	d="
M304.260437,180.302658 
	C301.854828,179.715393 299.726562,179.405396 297.798126,178.610550 
	C297.021851,178.290619 296.683624,176.907822 296.146027,176.008743 
	C297.201874,175.450699 298.226135,174.811142 299.332245,174.382996 
	C299.675903,174.249969 300.247070,174.854767 300.704346,174.839035 
	C302.600311,174.773849 304.492584,174.600464 306.386200,174.466812 
	C304.957703,173.361053 303.647034,172.033554 302.074890,171.198120 
	C299.256042,169.700150 296.094360,168.480545 297.099426,164.431854 
	C297.603027,162.403168 298.627045,159.015106 299.714691,158.892395 
	C303.324219,158.485214 307.075500,159.234116 310.751068,159.706146 
	C311.041901,159.743484 311.527985,161.541183 311.310394,161.704575 
	C310.205536,162.534241 308.950439,163.474625 307.648956,163.652649 
	C306.036591,163.873199 304.327087,163.383606 302.659546,163.200806 
	C302.462799,163.696579 302.266022,164.192352 302.069275,164.688126 
	C303.577148,165.567780 304.991608,166.726761 306.612366,167.269043 
	C310.003571,168.403702 313.347778,170.123932 312.685089,173.966888 
	C312.021484,177.814774 309.157837,180.567917 304.260437,180.302658 
z"/>
<path fill="#151417" opacity="1.000000" stroke="none" 
	d="
M243.242096,171.242371 
	C244.650238,167.838867 245.614563,164.619873 247.239639,161.778839 
	C248.100189,160.274414 250.022598,158.734711 251.631439,158.532928 
	C252.658737,158.404083 254.282715,160.521057 255.116806,161.938507 
	C256.441864,164.190292 257.576782,166.626083 258.315643,169.124924 
	C258.796356,170.750580 258.925385,172.858551 258.248474,174.297089 
	C257.880219,175.079620 255.501038,175.124344 254.026016,175.135895 
	C250.535202,175.163208 246.585953,173.620682 245.140640,178.898178 
	C244.948288,179.600479 242.406998,179.659515 239.636215,180.339935 
	C241.098694,176.613846 242.085800,174.098907 243.242096,171.242371 
M249.294281,168.175400 
	C249.724991,169.347061 250.155685,170.518738 250.586395,171.690399 
	C251.201050,171.271027 251.815704,170.851669 252.430359,170.432312 
	C251.527512,169.504120 250.624664,168.575943 249.294281,168.175400 
z"/>
<path fill="#1B1E21" opacity="1.000000" stroke="none" 
	d="
M193.491302,205.714996 
	C192.497238,204.818497 191.302505,204.086792 191.299667,203.350494 
	C191.284836,199.495041 191.572128,195.638443 191.789993,191.029678 
	C193.479614,191.835388 195.142075,192.662979 196.835648,193.421127 
	C197.688431,193.802887 199.088776,194.583313 199.403778,194.288467 
	C201.965836,191.890289 203.340088,192.736954 205.054047,195.437515 
	C207.477402,199.255875 207.733368,203.234039 205.143982,206.443192 
	C204.017960,207.838730 200.425735,207.495529 197.960373,207.460892 
	C196.579956,207.441483 195.213348,206.437836 193.491302,205.714996 
z"/>
<path fill="#1B1E21" opacity="1.000000" stroke="none" 
	d="
M333.578369,204.041016 
	C330.044861,205.572464 326.804413,207.137466 323.384979,207.936188 
	C322.427917,208.159760 319.873383,206.104980 319.891785,205.130157 
	C319.960419,201.504105 320.587280,197.836990 321.526001,194.324631 
	C321.703979,193.658585 324.259308,193.627914 325.839172,193.606277 
	C328.472931,192.923660 331.106720,192.241043 333.740479,191.558441 
	C333.421753,194.309387 333.103027,197.060318 332.686646,200.654129 
	C332.793915,200.954788 333.298798,202.369720 333.578369,204.041016 
z"/>
<path fill="#151417" opacity="1.000000" stroke="none" 
	d="
M230.757477,134.597778 
	C228.985306,130.747940 227.122223,127.284492 225.357849,123.771461 
	C224.637253,122.336678 224.130524,120.794479 223.517090,119.277878 
	C227.217224,118.062431 227.217224,118.062431 233.206543,125.588440 
	C235.986252,123.310394 236.280731,116.638901 242.858871,119.960320 
	C241.419403,122.693878 239.870987,125.178566 238.770859,127.848007 
	C237.605591,130.675507 236.994278,133.727783 235.894821,136.587204 
	C235.202469,138.387772 234.057861,140.014450 233.116150,141.719131 
	C232.362503,140.128906 231.551727,138.562103 230.885620,136.936035 
	C230.646454,136.352234 230.755905,135.625656 230.757477,134.597778 
z"/>
<path fill="#1B1E21" opacity="1.000000" stroke="none" 
	d="
M234.445862,204.869812 
	C234.348297,203.973663 234.020309,202.704147 233.607529,202.675949 
	C230.941803,202.493835 228.257553,202.582703 225.579391,202.582703 
	C225.415222,202.148529 225.251053,201.714371 225.086884,201.280197 
	C226.217621,200.562607 227.593719,199.022491 228.435471,199.273605 
	C231.626495,200.225540 236.074982,200.955566 237.373199,203.271103 
	C239.082901,206.320587 238.339752,210.784363 238.453186,214.645874 
	C238.469452,215.200134 237.458679,216.138031 236.783661,216.293839 
	C234.634796,216.789810 232.420074,217.000366 229.694748,217.399750 
	C229.105942,215.183517 228.246933,211.950241 227.248138,208.190857 
	C229.478958,207.186096 231.827576,206.128281 234.445862,204.869812 
z"/>
<path fill="#394F61" opacity="1.000000" stroke="none" 
	d="
M300.611511,140.363525 
	C299.140442,139.437164 297.045959,138.316025 296.936218,137.026031 
	C296.530945,132.262100 296.628662,127.434044 296.887878,122.649086 
	C296.957397,121.365791 298.270966,120.149887 299.013458,118.903046 
	C300.046417,120.082993 301.976166,121.274445 301.961182,122.440933 
	C301.885590,128.327942 301.303467,134.208435 300.611511,140.363525 
z"/>
<path fill="#04040C" opacity="1.000000" stroke="none" 
	d="
M287.884979,176.003326 
	C289.429230,176.304260 290.563843,176.598953 292.410370,177.078552 
	C288.525543,181.313873 284.369812,180.193146 280.753510,179.426834 
	C279.791748,179.223053 279.224304,175.556290 279.081970,173.438751 
	C278.826508,169.638275 278.922577,165.801361 279.120544,161.992599 
	C279.167877,161.082275 280.194550,160.222885 280.770813,159.340057 
	C281.505035,160.232605 282.786896,161.075546 282.873077,162.026810 
	C283.156677,165.156921 283.074005,168.327759 283.004974,171.480164 
	C282.936615,174.602615 284.315765,176.143188 287.884979,176.003326 
z"/>
<path fill="#1B1E21" opacity="1.000000" stroke="none" 
	d="
M295.872559,215.301453 
	C295.567688,218.076859 294.921387,219.477905 292.147552,217.560928 
	C290.395111,216.349854 288.240784,215.720337 286.286926,214.839066 
	C286.286926,210.842804 286.286926,206.803116 286.286926,202.672394 
	C289.129578,204.285629 291.697418,206.037827 294.495758,207.263992 
	C299.042877,209.256378 294.152710,212.635437 295.872559,215.301453 
z"/>
<path fill="#04040C" opacity="1.000000" stroke="none" 
	d="
M267.008545,178.959549 
	C267.009125,173.342514 266.975006,167.725174 267.027924,162.108627 
	C267.048279,159.948044 266.833740,157.375427 270.672424,159.228989 
	C270.914825,166.257156 270.914825,172.586395 270.914825,178.959549 
	C269.260315,178.959549 268.134430,178.959549 267.008545,178.959549 
z"/>
<path fill="#212325" opacity="1.000000" stroke="none" 
	d="
M181.754852,201.390991 
	C182.942657,203.716095 183.266174,206.322144 180.537308,206.219574 
	C177.967072,206.122971 174.604462,204.786621 173.174179,202.835022 
	C171.684326,200.802078 172.088730,197.380920 171.664886,194.566727 
	C172.117416,194.354965 172.569946,194.143204 173.022461,193.931442 
	C175.868622,196.316925 178.714767,198.702408 181.754852,201.390991 
z"/>
<path fill="#1B1E21" opacity="1.000000" stroke="none" 
	d="
M346.728577,205.816360 
	C345.118195,205.924316 343.821991,205.943832 342.525757,205.963364 
	C342.600983,204.565170 342.129944,202.699234 342.852509,201.855316 
	C345.140961,199.182617 347.875519,196.891876 350.526031,194.369186 
	C353.388428,199.613708 352.541504,202.106995 346.728577,205.816360 
z"/>
<path fill="#ACACAC" opacity="1.000000" stroke="none" 
	d="
M251.663422,233.805939 
	C261.710876,233.945648 271.325317,233.945648 280.939758,233.945648 
	C280.939484,234.201324 280.939209,234.457001 280.938904,234.712677 
	C261.577332,234.712677 242.215729,234.712677 222.854141,234.712677 
	C222.851486,234.363861 222.848816,234.015045 222.846161,233.666229 
	C232.307556,233.666229 241.768967,233.666229 251.663422,233.805939 
z"/>
<path fill="#1B1E21" opacity="1.000000" stroke="none" 
	d="
M292.785309,199.315155 
	C295.829559,199.193497 298.543091,199.193497 301.256592,199.193497 
	C301.477142,199.845856 301.697662,200.498215 301.918182,201.150574 
	C300.659515,202.402847 299.412354,204.674789 298.139679,204.689194 
	C295.699921,204.716827 293.245636,203.462433 290.797394,202.739960 
	C291.349792,201.638916 291.902161,200.537872 292.785309,199.315155 
z"/>
<path fill="#212325" opacity="1.000000" stroke="none" 
	d="
M194.982727,211.078735 
	C196.688812,211.099747 197.996689,211.099747 199.420319,211.099747 
	C192.855988,216.442932 188.195099,217.122391 185.155365,213.171646 
	C187.586517,209.304733 191.043289,210.000565 194.982727,211.078735 
z"/>
<path fill="#26292A" opacity="1.000000" stroke="none" 
	d="
M308.059418,214.869476 
	C305.486633,212.397186 300.755707,211.194122 303.423553,205.759995 
	C305.986969,206.932968 308.442841,208.056717 311.590729,209.497116 
	C310.472778,211.382156 309.441193,213.121536 308.059418,214.869476 
z"/>
<path fill="#26292A" opacity="1.000000" stroke="none" 
	d="
M221.006195,209.552612 
	C219.186325,211.614059 217.411346,213.291107 215.233749,215.348557 
	C213.725769,210.214233 215.229660,206.645782 218.552582,206.292068 
	C219.275177,206.215134 220.212601,208.156433 221.006195,209.552612 
z"/>
<path fill="#1B1E21" opacity="1.000000" stroke="none" 
	d="
M337.865417,213.173370 
	C336.326996,215.279602 331.470032,216.137894 330.279510,214.232422 
	C329.763977,213.407303 330.729279,211.656921 331.021973,210.326813 
	C333.356628,210.874832 335.691345,211.422836 338.045654,212.450592 
	C338.065247,212.930328 337.865417,213.173370 337.865417,213.173370 
z"/>
<path fill="#B6C0CB" opacity="1.000000" stroke="none" 
	d="
M266.819794,179.159821 
	C268.134430,178.959549 269.260315,178.959549 270.914825,178.959549 
	C270.914825,172.586395 270.914825,166.257156 270.955902,159.460632 
	C271.345154,162.768372 271.803192,166.537491 272.007233,170.320297 
	C272.175079,173.431305 272.041473,176.558578 272.041473,180.124207 
	C270.105316,179.850754 268.368164,179.605423 266.819794,179.159821 
z"/>
<path fill="#1B1E21" opacity="1.000000" stroke="none" 
	d="
M265.275513,140.777130 
	C263.764496,137.886429 262.529236,134.779495 261.152222,131.343353 
	C262.524078,134.196411 264.037659,137.378647 265.275513,140.777130 
z"/>
<path fill="#0E0D13" opacity="1.000000" stroke="none" 
	d="
M262.440491,208.959793 
	C262.850006,210.444656 263.259521,211.929504 263.121277,213.609802 
	C262.035828,213.032394 261.498169,212.259537 260.960480,211.486694 
	C260.960480,211.486694 260.994598,211.496857 261.324890,211.309021 
	C261.916962,210.400726 262.178711,209.680267 262.440491,208.959793 
z"/>
<path fill="#212325" opacity="1.000000" stroke="none" 
	d="
M263.114075,215.159668 
	C262.567139,216.250473 262.020203,217.341263 261.473267,218.432068 
	C260.908783,217.597656 260.344299,216.763245 260.228699,215.661362 
	C261.489716,215.315811 262.301910,215.237732 263.114075,215.159668 
z"/>
<path fill="#ACACAC" opacity="1.000000" stroke="none" 
	d="
M315.681915,209.007767 
	C314.481262,208.914581 313.585968,208.858353 312.690704,208.802124 
	C312.691284,208.610352 312.691833,208.418564 312.692413,208.226791 
	C313.802948,208.226791 314.913635,208.218918 316.023804,208.238708 
	C316.137604,208.240738 316.357849,208.456543 316.342560,208.491272 
	C316.255371,208.689484 316.111755,208.862885 315.681915,209.007767 
z"/>
<path fill="#394F61" opacity="1.000000" stroke="none" 
	d="
M263.200195,214.873383 
	C262.301910,215.237732 261.489716,215.315811 260.290497,215.254776 
	C260.005219,214.021759 260.106995,212.927856 260.584625,211.660324 
	C261.498169,212.259537 262.035828,213.032394 262.957153,213.898468 
	C263.322601,214.190186 263.304443,214.388657 263.200195,214.873383 
z"/>
<path fill="#212325" opacity="1.000000" stroke="none" 
	d="
M262.387512,206.709229 
	C261.666168,206.760284 261.233856,206.621124 260.801544,206.481979 
	C261.050293,206.171463 261.299042,205.860947 261.547821,205.550446 
	C261.924042,205.873306 262.300293,206.196152 262.387512,206.709229 
z"/>
<path fill="#B6C0CB" opacity="1.000000" stroke="none" 
	d="
M205.798706,208.929489 
	C205.888672,209.340805 205.654251,209.892960 205.268478,210.035522 
	C204.999191,210.135010 204.522644,209.673584 204.138672,209.462708 
	C204.562332,209.273605 204.986008,209.084518 205.798706,208.929489 
z"/>
<path fill="#394F61" opacity="1.000000" stroke="none" 
	d="
M262.188202,208.659790 
	C262.178711,209.680267 261.916962,210.400726 261.305298,211.302063 
	C260.735291,210.838470 260.515137,210.194000 260.810669,209.042191 
	C261.326355,208.534851 261.174011,208.175201 261.174011,208.175201 
	C261.427979,208.236740 261.681946,208.298264 262.188202,208.659790 
z"/>
<path fill="#1B1E21" opacity="1.000000" stroke="none" 
	d="
M338.164368,212.808167 
	C338.515198,212.981903 338.766876,213.277786 339.018585,213.573654 
	C338.738068,213.532883 338.457581,213.492096 338.021240,213.312347 
	C337.865417,213.173370 338.065247,212.930328 338.164368,212.808167 
z"/>
<path fill="#1B1E21" opacity="1.000000" stroke="none" 
	d="
M261.146393,208.235962 
	C261.174011,208.175201 261.326355,208.534851 261.148499,208.615219 
	C260.970673,208.695587 261.118774,208.296707 261.146393,208.235962 
z"/>
<path fill="#000000" opacity="1.000000" stroke="none" 
	d="
M249.508057,167.911591 
	C250.624664,168.575943 251.527512,169.504120 252.430359,170.432312 
	C251.815704,170.851669 251.201050,171.271027 250.586395,171.690399 
	C250.155685,170.518738 249.724991,169.347061 249.508057,167.911591 
z"/>
</svg>